<svg width="100" height="40" viewBox="0 0 100 40" fill="none" xmlns="http://www.w3.org/2000/svg">
<path d="M27.7773 28H24.2617V10.9375H27.7773V28ZM35.6406 10.9375L40.0234 23.3125L44.3828 10.9375H49V28H45.4727V23.3359L45.8242 15.2852L41.2188 28H38.8047L34.2109 15.2969L34.5625 23.3359V28H31.0469V10.9375H35.6406ZM52.0703 28V10.9375H57.3203C58.8203 10.9375 60.1602 11.2773 61.3398 11.957C62.5273 12.6289 63.4531 13.5898 64.1172 14.8398C64.7812 16.082 65.1133 17.4961 65.1133 19.082V19.8672C65.1133 21.4531 64.7852 22.8633 64.1289 24.0977C63.4805 25.332 62.5625 26.2891 61.375 26.9688C60.1875 27.6484 58.8477 27.9922 57.3555 28H52.0703ZM55.5859 13.7852V25.1758H57.2852C58.6602 25.1758 59.7109 24.7266 60.4375 23.8281C61.1641 22.9297 61.5352 21.6445 61.5508 19.9727V19.0703C61.5508 17.3359 61.1914 16.0234 60.4727 15.1328C59.7539 14.2344 58.7031 13.7852 57.3203 13.7852H55.5859ZM67.6797 28V10.9375H73.6562C75.7266 10.9375 77.2969 11.3359 78.3672 12.1328C79.4375 12.9219 79.9727 14.082 79.9727 15.6133C79.9727 16.4492 79.7578 17.1875 79.3281 17.8281C78.8984 18.4609 78.3008 18.9258 77.5352 19.2227C78.4102 19.4414 79.0977 19.8828 79.5977 20.5469C80.1055 21.2109 80.3594 22.0234 80.3594 22.9844C80.3594 24.625 79.8359 25.8672 78.7891 26.7109C77.7422 27.5547 76.25 27.9844 74.3125 28H67.6797ZM71.1953 20.5703V25.1758H74.207C75.0352 25.1758 75.6797 24.9805 76.1406 24.5898C76.6094 24.1914 76.8438 23.6445 76.8438 22.9492C76.8438 21.3867 76.0352 20.5938 74.418 20.5703H71.1953ZM71.1953 18.0859H73.7969C75.5703 18.0547 76.457 17.3477 76.457 15.9648C76.457 15.1914 76.2305 14.6367 75.7773 14.3008C75.332 13.957 74.625 13.7852 73.6562 13.7852H71.1953V18.0859Z" fill="white"/>
<rect x="1" y="1" width="98" height="38" rx="9" stroke="white" stroke-width="2"/>
</svg>
