<?xml version="1.0" encoding="UTF-8" standalone="no"?>
<!DOCTYPE svg PUBLIC "-//W3C//DTD SVG 1.1//EN" "http://www.w3.org/Graphics/SVG/1.1/DTD/svg11.dtd">
<svg version="1.1" xmlns="http://www.w3.org/2000/svg" xmlns:xlink="http://www.w3.org/1999/xlink" preserveAspectRatio="xMidYMid meet" viewBox="0 0 390 130" width="120" height="40"><defs><path d="M101.51 43.52C102.46 43.6 103.42 43.46 104.31 43.11C105.08 42.81 105.07 42.82 105.6 42.61C107.19 41.99 108.99 42.24 110.35 43.26C110.73 43.55 110.39 43.3 110.95 43.72C111.77 44.33 112.25 45.29 112.25 46.32C112.25 47.58 112.25 50.74 112.25 55.79L112.25 75.99L112.11 94.93C111.88 101.04 111.74 104.86 111.68 106.39C111.62 108.04 111.03 109.62 110.01 110.92C109.78 111.21 110.21 110.67 109.86 111.11C109.29 111.83 108.28 112.05 107.46 111.63C106.32 111.05 105.04 110.4 104.08 109.91C102.77 109.24 101.17 109.68 100.38 110.92C100.11 111.36 100.46 110.8 100.14 111.31C99.42 112.44 99.29 113.85 99.78 115.09C99.89 115.38 99.76 115.05 99.95 115.53C100.19 116.12 100.76 116.51 101.4 116.5C103.66 116.49 109.32 116.45 118.38 116.39L148.37 116.39L162.16 116.18C163.33 115.68 164.06 115.38 164.35 115.25C165.86 114.62 166.86 113.14 166.88 111.5C166.9 110.07 166.93 107.66 166.95 106.02C166.95 106.02 166.97 102.65 166.97 102.65C166.97 101.31 166.98 100.51 166.98 99.55C166.98 98 165.27 97.07 163.97 97.91C163.59 98.15 164.33 97.67 163.67 98.1C162.61 98.78 161.75 99.73 161.16 100.84C160.56 101.99 160.21 102.66 159.75 103.53C158.71 105.51 157.04 107.09 155 108.02C154.6 108.2 155.41 107.83 154.72 108.14C153.58 108.66 152.38 109.02 151.14 109.21C148.66 109.59 145.77 110.03 143.96 110.31C140.5 110.84 137 111.03 133.5 110.87C131.34 110.77 127.77 110.61 125.03 110.49C123.71 110.43 122.66 109.36 122.63 108.04C122.61 106.87 122.54 103.95 122.43 99.28C122.39 90.53 122.37 85.06 122.36 82.87C122.36 81.63 123.25 80.57 124.47 80.36C125.34 80.22 125.47 80.19 126.25 80.06C127.95 79.78 129.69 79.75 131.4 79.98C132.5 80.13 133.28 80.23 134.4 80.38C136 80.6 137.43 81.52 138.28 82.9C138.64 83.48 138.3 82.92 138.64 83.47C139.6 85.03 140.36 86.7 140.92 88.44C141.25 89.48 141.69 90.87 142.09 92.13C142.34 92.93 143.24 93.33 144.01 92.97C144.35 92.82 143.9 93.02 144.23 92.87C145.16 92.44 145.82 91.58 145.99 90.58C146.26 88.93 146.4 88.13 146.57 87.11C147.1 83.95 147.37 80.75 147.37 77.54C147.37 76.58 147.37 74.18 147.37 70.35C146.95 66.16 146.68 63.55 146.58 62.5C146.46 61.38 145.52 60.52 144.39 60.52C144.13 60.52 145.02 60.52 144.68 60.52C143.7 60.52 142.8 61.1 142.4 61.99C142.2 62.43 142.27 62.28 142.07 62.72C141.63 63.67 141.35 64.69 141.24 65.74C141.14 66.66 140.99 68.04 140.89 69.01C140.79 69.89 140.51 70.74 140.05 71.5C139.86 71.81 140.33 71.03 140.23 71.2C139.52 72.37 138.26 73.08 136.89 73.08C134.05 73.08 127.09 73.08 124.09 73.08C123.31 73.08 122.67 72.46 122.65 71.68C122.61 70.05 122.51 65.96 122.36 59.43C122.32 54.19 122.3 50.91 122.29 49.6C122.27 47 124.32 44.85 126.92 44.76C127.18 44.75 127.83 44.72 128.86 44.68L138.26 44.69C142.81 44.69 145.66 44.69 146.8 44.69C147.77 44.69 148.66 45.22 149.13 46.07C149.34 46.44 149.86 47.38 150.69 48.88C151.36 50.31 151.78 51.21 151.94 51.56C153.09 54.01 154.47 56.35 156.05 58.54C156.47 59.12 155.86 58.28 156.41 59.03C157.11 60.01 158.63 59.74 158.96 58.59C159.2 57.76 158.93 58.68 159.13 57.99C159.81 55.64 160.2 53.22 160.3 50.78C160.36 49.17 160.44 47.27 160.51 45.47C160.59 43.64 160.25 41.82 159.52 40.14C159.37 39.81 159.81 40.81 159.61 40.34C159.12 39.23 158.02 38.5 156.8 38.5C145.32 38.5 113.34 38.5 101.97 38.5C100.56 38.5 99.42 39.65 99.42 41.05C99.42 41.51 99.42 40.94 99.42 41.55C99.42 42.56 100.2 43.41 101.21 43.49C101.56 43.52 101.09 43.48 101.51 43.52Z" id="cfEDsQHuw"></path><linearGradient id="gradientb6uIwupfqE" gradientUnits="userSpaceOnUse" x1="130.93" y1="11.3" x2="132.44" y2="59.34"><stop style="stop-color: #b03701;stop-opacity: 1" offset="0%"></stop><stop style="stop-color: #e26001;stop-opacity: 1" offset="100%"></stop></linearGradient><path d="M184.89 116L203.93 116L187 39L166.81 39L184.89 116Z" id="k3cYRSiJmA"></path><path d="M196.62 71.56L205.47 111.13L221.81 39L202.97 39L196.62 71.56Z" id="bv3rQN1oB"></path><path d="M225.94 116L243.8 116L243.8 39L225.94 39L225.94 116Z" id="aKbVTFdE4"></path><path d="M243.94 8L243.94 29.5L225.94 29.5L225.94 8L243.94 8Z" id="a3H3LiXUon"></path><path d="M250.44 57.63L250.44 96.75L262.02 116L269.61 116L269.61 39L262.02 39L250.44 57.63Z" id="b7JC1L2yDk"></path><path d="M298.36 98.3L298.36 105.75L292.47 116L272.17 116L272.17 98.3L298.36 98.3Z" id="as46N40uQ"></path><path d="M272.17 58.87L282.22 58.87L282.22 71.6L272.17 71.6L272.17 84.64L300.44 85.57L300.44 58.87L288.68 39L272.17 39L272.17 58.87Z" id="a2fOPM8joK"></path><path d="M322.34 39L330.16 78.36L335.8 51.63L343.15 86.54L337.36 116L320.47 116L302.94 39L322.34 39Z" id="bbj9cxB5A"></path><path d="M352.07 116L370.51 116L354.77 39L335.37 39L352.07 116Z" id="awHfdXpey"></path><path d="M363.76 70.19L372.18 111.54L387.94 39L369.42 39L363.76 70.19Z" id="a10qndqfjP"></path><path d="M93.96 74.5C82.01 88.38 56.26 86.62 36.45 70.57C16.64 54.52 10.27 30.25 22.22 16.36C34.18 2.48 59.93 4.24 79.74 20.29C99.55 36.34 105.92 60.61 93.96 74.5Z" id="a1H515ZBAF"></path><linearGradient id="gradienta176wclFl2" gradientUnits="userSpaceOnUse" x1="55.29" y1="49.91" x2="93.83" y2="7.26"><stop style="stop-color: #e26001;stop-opacity: 1" offset="0%"></stop><stop style="stop-color: #b03701;stop-opacity: 1" offset="100%"></stop></linearGradient><path d="M81.57 39.09C78.23 43.21 71.15 43.21 65.73 39.09C60.32 34.97 58.64 28.29 61.97 24.17C65.3 20.05 72.39 20.05 77.8 24.18C83.21 28.3 84.9 34.98 81.57 39.09Z" id="c3cQvJ09DJ"></path><path d="M47.48 32.5C43.98 36.48 36.9 36.21 31.66 31.89C26.42 27.56 25.01 20.82 28.5 16.83C32 12.85 39.08 13.12 44.32 17.45C49.56 21.77 50.98 28.51 47.48 32.5Z" id="d8cCgZ3mk"></path><path d="M90.86 70.97C87.08 74.7 80.03 73.93 75.13 69.25C70.22 64.57 69.31 57.75 73.1 54.02C76.88 50.29 83.93 51.05 88.83 55.73C93.74 60.41 94.65 67.23 90.86 70.97Z" id="bOlwiR82P"></path><path d="M55.65 65C52.31 69.12 45.22 69.12 39.81 65C34.4 60.88 32.71 54.2 36.05 50.08C39.38 45.96 46.47 45.96 51.88 50.08C57.29 54.2 58.98 60.88 55.65 65Z" id="c1vezUF27N"></path><path d="M62.15 46.44C61.2 47.45 59.3 47.27 57.89 46.04C56.48 44.81 56.1 42.99 57.04 41.97C57.98 40.96 59.89 41.14 61.3 42.37C62.71 43.6 63.09 45.42 62.15 46.44Z" id="e2a2loyjUf"></path><path d="M18.07 21.74C17.26 23.62 15.83 27.14 15.38 31.24C15.23 32.53 15.31 34.49 15.38 35.69C15.54 38.89 16.27 41.89 16.78 44.22C17.41 47.06 19.45 51.73 22.03 55.98C24.87 60.67 28.37 64.94 31.32 67.68C33.49 69.68 36.21 72.31 39.27 74.5C44.16 78 49.91 81.01 55.6 83.32C64.87 87.09 84.76 96.48 88.29 104.9C87.33 106.18 79.61 116.38 78.65 117.65C76.7 113.55 71.49 109.76 63.35 105.97C62.5 105.62 55.73 102.84 54.88 102.49C49.78 100.2 29.82 92.06 18.07 79.09C6.31 66.12 1.54 50.2 7.69 39.27C7.69 39.27 17.15 23.09 18.07 21.74Z" id="c3wb0us9oq"></path><linearGradient id="gradientbiib0vvHc" gradientUnits="userSpaceOnUse" x1="27.62" y1="72.97" x2="64.91" y2="38.5"><stop style="stop-color: #e26001;stop-opacity: 1" offset="0%"></stop><stop style="stop-color: #b03701;stop-opacity: 1" offset="100%"></stop></linearGradient><path d="M78.63 93.53C72.54 89.22 63.66 85.35 55.29 81.67C59.34 83.27 67.99 85.66 76.37 84.57C79.29 84.2 83.4 83.33 86.63 81.67C88.97 80.46 91.61 78.18 93.2 77C90.9 80 79.78 92.03 78.63 93.53Z" id="a1IfrGWHHD"></path><linearGradient id="gradientd1mmgZ6i0o" gradientUnits="userSpaceOnUse" x1="74.24" y1="89.19" x2="86.91" y2="77"><stop style="stop-color: #e26001;stop-opacity: 1" offset="0%"></stop><stop style="stop-color: #b03701;stop-opacity: 1" offset="100%"></stop></linearGradient><path d="M28.47 89.85L23.44 85.94C21.95 84.72 20.39 83.28 18.76 81.62C17.12 79.96 15.59 78.11 14.15 76.09L6.62 108.52L20.85 118.75L28.47 89.85Z" id="b4pXarbWc6"></path></defs><g><g><g><use xlink:href="#cfEDsQHuw" opacity="1" fill="url(#gradientb6uIwupfqE)"></use><g><use xlink:href="#cfEDsQHuw" opacity="1" fill-opacity="0" stroke="#000000" stroke-width="0" stroke-opacity="1"></use></g></g><g><g><use xlink:href="#k3cYRSiJmA" opacity="1" fill="#ffffff" fill-opacity="1"></use><g><use xlink:href="#k3cYRSiJmA" opacity="1" fill-opacity="0" stroke="#e26001" stroke-width="0.05" stroke-opacity="0.7"></use></g></g><g><use xlink:href="#bv3rQN1oB" opacity="1" fill="#ffffff" fill-opacity="1"></use><g><use xlink:href="#bv3rQN1oB" opacity="1" fill-opacity="0" stroke="#e26001" stroke-width="0.05" stroke-opacity="0.7"></use></g></g></g><g><g><use xlink:href="#aKbVTFdE4" opacity="1" fill="#ffffff" fill-opacity="1"></use><g><use xlink:href="#aKbVTFdE4" opacity="1" fill-opacity="0" stroke="#e26001" stroke-width="0.05" stroke-opacity="0.7"></use></g></g><g><use xlink:href="#a3H3LiXUon" opacity="1" fill="#ffffff" fill-opacity="1"></use><g><use xlink:href="#a3H3LiXUon" opacity="1" fill-opacity="0" stroke="#e26001" stroke-width="0.05" stroke-opacity="0.7"></use></g></g></g><g><g><use xlink:href="#b7JC1L2yDk" opacity="1" fill="#ffffff" fill-opacity="1"></use><g><use xlink:href="#b7JC1L2yDk" opacity="1" fill-opacity="0" stroke="#e26001" stroke-width="0.05" stroke-opacity="0.7"></use></g></g><g><use xlink:href="#as46N40uQ" opacity="1" fill="#ffffff" fill-opacity="1"></use><g><use xlink:href="#as46N40uQ" opacity="1" fill-opacity="0" stroke="#e26001" stroke-width="0.05" stroke-opacity="0.7"></use></g></g><g><use xlink:href="#a2fOPM8joK" opacity="1" fill="#ffffff" fill-opacity="1"></use><g><use xlink:href="#a2fOPM8joK" opacity="1" fill-opacity="0" stroke="#e26001" stroke-width="0.05" stroke-opacity="0.7"></use></g></g></g><g><g><use xlink:href="#bbj9cxB5A" opacity="1" fill="#ffffff" fill-opacity="1"></use><g><use xlink:href="#bbj9cxB5A" opacity="1" fill-opacity="0" stroke="#e26001" stroke-width="0.05" stroke-opacity="0.7"></use></g></g><g><use xlink:href="#awHfdXpey" opacity="1" fill="#ffffff" fill-opacity="1"></use><g><use xlink:href="#awHfdXpey" opacity="1" fill-opacity="0" stroke="#e26001" stroke-width="0.05" stroke-opacity="0.7"></use></g></g><g><use xlink:href="#a10qndqfjP" opacity="1" fill="#ffffff" fill-opacity="1"></use><g><use xlink:href="#a10qndqfjP" opacity="1" fill-opacity="0" stroke="#e26001" stroke-width="0.05" stroke-opacity="0.7"></use></g></g></g><g><use xlink:href="#a1H515ZBAF" opacity="1" fill="url(#gradienta176wclFl2)"></use><g><use xlink:href="#a1H515ZBAF" opacity="1" fill-opacity="0" stroke="#000000" stroke-width="0" stroke-opacity="1"></use></g></g><g><g><use xlink:href="#c3cQvJ09DJ" opacity="1" fill="#000000" fill-opacity="1"></use><g><use xlink:href="#c3cQvJ09DJ" opacity="1" fill-opacity="0" stroke="#000000" stroke-width="0" stroke-opacity="1"></use></g><g><filter id="shadow15632767" x="51.26" y="12.08" width="43.02" height="41.1" filterUnits="userSpaceOnUse" primitiveUnits="userSpaceOnUse"><feFlood></feFlood><feComposite in2="SourceAlpha" operator="out"></feComposite><feGaussianBlur stdDeviation="1"></feGaussianBlur><feOffset dx="-2" dy="2" result="afterOffset"></feOffset><feFlood flood-color="#e26001" flood-opacity="0.6"></feFlood><feComposite in2="afterOffset" operator="in"></feComposite><feMorphology operator="dilate" radius="0"></feMorphology><feComposite in2="SourceAlpha" operator="in"></feComposite></filter><path d="M81.57 39.09C78.23 43.21 71.15 43.21 65.73 39.09C60.32 34.97 58.64 28.29 61.97 24.17C65.3 20.05 72.39 20.05 77.8 24.18C83.21 28.3 84.9 34.98 81.57 39.09Z" id="b5GQcB1X6B" fill="white" fill-opacity="1" filter="url(#shadow15632767)"></path></g></g><g><use xlink:href="#d8cCgZ3mk" opacity="1" fill="#000000" fill-opacity="1"></use><g><use xlink:href="#d8cCgZ3mk" opacity="1" fill-opacity="0" stroke="#000000" stroke-width="0" stroke-opacity="1"></use></g><g><filter id="shadow14300884" x="17.58" y="5.01" width="42.82" height="41.3" filterUnits="userSpaceOnUse" primitiveUnits="userSpaceOnUse"><feFlood></feFlood><feComposite in2="SourceAlpha" operator="out"></feComposite><feGaussianBlur stdDeviation="1"></feGaussianBlur><feOffset dx="-2" dy="2" result="afterOffset"></feOffset><feFlood flood-color="#e26001" flood-opacity="0.6"></feFlood><feComposite in2="afterOffset" operator="in"></feComposite><feMorphology operator="dilate" radius="0"></feMorphology><feComposite in2="SourceAlpha" operator="in"></feComposite></filter><path d="M47.48 32.5C43.98 36.48 36.9 36.21 31.66 31.89C26.42 27.56 25.01 20.82 28.5 16.83C32 12.85 39.08 13.12 44.32 17.45C49.56 21.77 50.98 28.51 47.48 32.5Z" id="aIek4nbYC" fill="white" fill-opacity="1" filter="url(#shadow14300884)"></path></g></g><g><use xlink:href="#bOlwiR82P" opacity="1" fill="#000000" fill-opacity="1"></use><g><use xlink:href="#bOlwiR82P" opacity="1" fill-opacity="0" stroke="#000000" stroke-width="0" stroke-opacity="1"></use></g><g><filter id="shadow2873644" x="61.76" y="42.65" width="42.44" height="41.68" filterUnits="userSpaceOnUse" primitiveUnits="userSpaceOnUse"><feFlood></feFlood><feComposite in2="SourceAlpha" operator="out"></feComposite><feGaussianBlur stdDeviation="1"></feGaussianBlur><feOffset dx="-2" dy="2" result="afterOffset"></feOffset><feFlood flood-color="#e26001" flood-opacity="0.6"></feFlood><feComposite in2="afterOffset" operator="in"></feComposite><feMorphology operator="dilate" radius="0"></feMorphology><feComposite in2="SourceAlpha" operator="in"></feComposite></filter><path d="M90.86 70.97C87.08 74.7 80.03 73.93 75.13 69.25C70.22 64.57 69.31 57.75 73.1 54.02C76.88 50.29 83.93 51.05 88.83 55.73C93.74 60.41 94.65 67.23 90.86 70.97Z" id="b38Z4VjJ7u" fill="white" fill-opacity="1" filter="url(#shadow2873644)"></path></g></g><g><use xlink:href="#c1vezUF27N" opacity="1" fill="#000000" fill-opacity="1"></use><g><use xlink:href="#c1vezUF27N" opacity="1" fill-opacity="0" stroke="#000000" stroke-width="0" stroke-opacity="1"></use></g><g><filter id="shadow9678298" x="25.34" y="37.99" width="43.02" height="41.1" filterUnits="userSpaceOnUse" primitiveUnits="userSpaceOnUse"><feFlood></feFlood><feComposite in2="SourceAlpha" operator="out"></feComposite><feGaussianBlur stdDeviation="1"></feGaussianBlur><feOffset dx="-2" dy="2" result="afterOffset"></feOffset><feFlood flood-color="#e26001" flood-opacity="0.6"></feFlood><feComposite in2="afterOffset" operator="in"></feComposite><feMorphology operator="dilate" radius="0"></feMorphology><feComposite in2="SourceAlpha" operator="in"></feComposite></filter><path d="M55.65 65C52.31 69.12 45.22 69.12 39.81 65C34.4 60.88 32.71 54.2 36.05 50.08C39.38 45.96 46.47 45.96 51.88 50.08C57.29 54.2 58.98 60.88 55.65 65Z" id="brRXmZUCW" fill="white" fill-opacity="1" filter="url(#shadow9678298)"></path></g></g><g><use xlink:href="#e2a2loyjUf" opacity="1" fill="#000000" fill-opacity="1"></use><g><use xlink:href="#e2a2loyjUf" opacity="1" fill-opacity="0" stroke="#000000" stroke-width="0" stroke-opacity="1"></use></g><g><filter id="shadow14629978" x="47.52" y="32.32" width="26.14" height="25.78" filterUnits="userSpaceOnUse" primitiveUnits="userSpaceOnUse"><feFlood></feFlood><feComposite in2="SourceAlpha" operator="out"></feComposite><feGaussianBlur stdDeviation="1"></feGaussianBlur><feOffset dx="-2" dy="2" result="afterOffset"></feOffset><feFlood flood-color="#e26001" flood-opacity="0.6"></feFlood><feComposite in2="afterOffset" operator="in"></feComposite><feMorphology operator="dilate" radius="0"></feMorphology><feComposite in2="SourceAlpha" operator="in"></feComposite></filter><path d="M62.15 46.44C61.2 47.45 59.3 47.27 57.89 46.04C56.48 44.81 56.1 42.99 57.04 41.97C57.98 40.96 59.89 41.14 61.3 42.37C62.71 43.6 63.09 45.42 62.15 46.44Z" id="flcgerlXz" fill="white" fill-opacity="1" filter="url(#shadow14629978)"></path></g></g></g><g><use xlink:href="#c3wb0us9oq" opacity="1" fill="url(#gradientbiib0vvHc)"></use><g><use xlink:href="#c3wb0us9oq" opacity="1" fill-opacity="0" stroke="#000000" stroke-width="0" stroke-opacity="1"></use></g></g><g><use xlink:href="#a1IfrGWHHD" opacity="1" fill="url(#gradientd1mmgZ6i0o)"></use><g><use xlink:href="#a1IfrGWHHD" opacity="1" fill-opacity="0" stroke="#000000" stroke-width="0" stroke-opacity="1"></use></g></g><g><use xlink:href="#b4pXarbWc6" opacity="1" fill="#ffffff" fill-opacity="1"></use><g><use xlink:href="#b4pXarbWc6" opacity="1" fill-opacity="0" stroke="#e26001" stroke-width="0.05" stroke-opacity="0.7"></use></g></g></g></g></svg>